<?xml version="1.0" encoding="UTF-8"?>
<svg width="1200pt" height="1200pt" version="1.1" viewBox="0 0 1200 1200" xmlns="http://www.w3.org/2000/svg">
 <path d="m600 252.38c-191.81 0-347.63 155.82-347.63 347.63s155.82 347.63 347.63 347.63 347.63-155.82 347.63-347.63-155.82-347.63-347.63-347.63zm0 30.23c110.54 0 207.66 56.371 264.5 141.93-13.242-4.0586-26.285-5.9023-37.785-5.9023-34.637 0-71.332 14.406-100.37 38.258-29.035 23.852-50.773 58.164-50.773 97.77 0 30.051 10.621 57.523 26.922 78.168 16.301 20.645 38.824 35.188 63.762 35.188 15.113 0 24.09-8.7383 31.645-14.406 11.297-9.6172 18.371-8.4961 27.629 0.46875 11.309 11.586 7.6289 17.738 0.47266 27.395-5.668 7.5586-14.406 16.77-14.406 31.883 0 8.8164 3.9922 15.117 7.5586 20.074 5.3828 7.0039 10.656 12.625 15.824 19.602-20.805 28.488-36.027 59.195-38.023 95.883-54.109 42.809-122.5 68.488-196.96 68.488-39.273 0-76.766-7.3125-111.47-20.309 16.961-21.906 28.379-47.547 34.953-73.211 6.6406-16.301 8.1289-35.078 12.281-50.066h34.008c5.4141-0.074218 10.688-3.2461 13.227-8.0312 16.57-35.172 54.027-69.223 54.789-105.33-1.8867-19.555-15.543-30.965-30.699-38.965-13.562-7.1211-27.859-12.895-35.188-18.184-46.824-61.086-113.18-105.58-142.64-127.53-13.203-13.191-15.328-28.148-13.699-40.855 2.2148-15.508 11.648-33.387 28.34-50.301 17.836-14.582 39.691-15.031 65.652-8.9727 26.168 6.1055 54.062 18.887 78.168 26.922 12.359 4.1211 24.105-1.2227 32.117-7.793 15.445-14.648 26.398-33.102 31.883-52.43 5.6289-21.844-1.125-39.652-24.324-44.16-26.789-4.1484-55.492 0.98047-80.293-0.46875-6.4727-0.78906-5.3477-3.7578-6.6133-9.4453 20.703-3.2422 41.746-5.6016 59.512-5.6719zm-275.36 159.64c2.2734 2.4609 2.6914 4.0078 2.832 5.9023-2.5586 10.461-6.9922 21.391-7.0859 30.938 0 10.074 5.9414 17.059 10.863 21.492 8.5078 6.7578 16.633 11.988 24.562 19.129 3.5508 4.5508 1.3633 7.1328-0.47266 11.336-2.3945 4.4922-6.2852 10.242-10.156 16.531-7.7383 12.574-17.238 26.816-17.238 44.871 0 14.484 6.8711 25.812 15.113 39.676 22.184 37.73 46.918 64.402 65.891 98.953 1.375 2.8477 1.957 5.1758 2.125 5.4297-3.3086 36.09-10.891 67.945-21.492 101.08-65.613-58.102-106.98-142.91-106.98-237.58 0-57.504 15.359-111.26 42.035-157.75z"/>
</svg>
