<?xml version="1.0" encoding="UTF-8"?>
<svg width="1200pt" height="1200pt" version="1.1" viewBox="0 0 1200 1200" xmlns="http://www.w3.org/2000/svg">
 <path d="m356.66 768.53c1.5117 1.5117 3.0234 1.5117 4.5352 3.0234 4.5352 3.7773 4.5352 12.09 10.578 13.602 1.5117 0 4.5352 0 5.2891 1.5117 0.75391 0.75391 0.75391 2.2656 0.75391 3.0234 1.5117 3.0234 5.2891 3.7773 6.8008 6.8008 1.5117 2.2656 0.75391 5.2891 1.5117 8.3125 0 6.0469 3.0234 11.336 7.5586 15.113 0.75391 0.75391 2.2656 1.5117 3.0234 3.0234 0.75391 2.2656-1.5117 3.7773-1.5117 6.0469 0 1.5117 1.5117 3.0234 1.5117 4.5352 0.75391 3.0234-2.2656 6.0469-5.2891 5.2891-1.5117-0.75391-3.0234-1.5117-3.7773-3.0234-10.578-10.578-21.16-22.672-23.426-37.785-0.75391-2.2656-0.75391-4.5352-2.2656-6.0469s-4.5352-2.2656-4.5352-4.5352c0-0.75391 0-1.5117 0.75391-2.2656 0-2.2656-1.5117-3.7773-2.2656-6.0469-2.2656-4.5352-3.0234-10.578-0.75391-15.113-0.76172 1.5117-0.003906 3.0234 1.5078 4.5352z"/>
 <path d="m624.94 381.6c1.5117-2.2656 2.2656-5.2891 3.0234-8.3125h1.5117c0.75391-1.5117 1.5117-3.7773 2.2656-5.2891 0-0.75391 0.75391-1.5117 0.75391-1.5117 0.75391-0.75391 2.2656 0 3.0234-0.75391-2.2656-2.2656-4.5352-5.2891-6.0469-7.5586 3.0234 0.75391 6.0469 0.75391 8.3125 0-2.2656-1.5117-3.7773-3.0234-6.0469-3.7773-0.75391-0.75391-1.5117-1.5117-1.5117-2.2656 0.75391-0.75391 1.5117 0 2.2656 0 2.2656 2.2656 3.7773 1.5117 6.8008 2.2656 1.5117 0.75391 2.2656 3.0234 4.5352 3.0234 0-0.75391 0.75391-2.2656 0-3.0234 3.0234 1.5117 5.2891 3.7773 7.5586 6.0469-1.5117-0.75391-2.2656-1.5117-3.7773-1.5117s-3.0234 1.5117-2.2656 3.0234c1.5117-0.75391 3.0234 0 3.7773 1.5117-2.2656 0-3.7773 0.75391-5.2891 1.5117 1.5117 0.75391 3.0234 2.2656 3.7773 3.0234-1.5117-1.5117-4.5352-1.5117-6.8008 0 2.2656 0.75391 3.7773 3.7773 3.7773 6.0469-1.5117-2.2656-3.7773-3.0234-6.0469-3.0234v1.5117c-0.75391 0-0.75391 0.75391-1.5117 0.75391 0.75391 1.5117 0.75391 3.0234 0 4.5352 1.5117 1.5117 4.5352 1.5117 6.8008 0.75391 0 0.75391 0 1.5117-0.75391 2.2656 0 1.5117 0.75391 3.7773 2.2656 4.5352 0.75391 0 1.5117 0 1.5117 0.75391 0.75391 0 0.75391 1.5117 0 1.5117-0.75391-0.75391-2.2656-0.75391-3.7773-0.75391-1.5117 0-3.0234 0.75391-5.2891 0.75391 0.75391 1.5117 2.2656 3.0234 3.7773 3.0234 0.75391 0 0.75391 0 1.5117-0.75391 2.2656 0 3.7773 3.7773 6.0469 4.5352-1.5117-0.75391-4.5352 0.75391-6.0469-0.75391-0.75391-0.75391-0.75391-1.5117-1.5117-2.2656-0.75391-0.75391-2.2656-0.75391-3.0234 0-0.75391 0.75391-1.5117 1.5117-3.0234 1.5117-3.0234 0.75391-6.0469-2.2656-9.0703-1.5117h-2.2656c-1.5117-0.75391-2.2656-3.0234-1.5117-5.2891-1.5117 0-2.2656-0.75391-3.7773-1.5117-0.75391-0.75391-1.5117-2.2656-0.75391-3.7773 3.0273-0.76562 5.293-0.011719 6.8047 0.74609z"/>
 <path d="m649.88 375.55c0-0.75391 0.75391-1.5117 0-2.2656 0-0.75391-0.75391-0.75391-1.5117-0.75391-0.75391 0-0.75391-0.75391-0.75391-1.5117 0.75391-1.5117 1.5117-2.2656 3.0234-3.0234 0.75391 0 2.2656-0.75391 3.0234 0 1.5117 0.75391 0.75391 3.0234 2.2656 3.7773s4.5352-1.5117 5.2891 1.5117v1.5117s-0.75391 0-0.75391 0.75391c-0.75391 0.75391 0 3.0234-1.5117 3.0234 0 0.75391 0.75391 1.5117 2.2656 2.2656 0.75391 0 2.2656 0 3.0234 0.75391 0.75391 0.75391 1.5117 1.5117 0.75391 2.2656-0.75391 1.5117-3.0234 2.2656-4.5352 1.5117l-2.2656-2.2656c-2.2656-1.5117-5.2891 0-7.5586-1.5117-1.5078-1.5078-0.75391-3.7773-0.75391-6.043z"/>
 <path d="m741.32 330.21c-5.2891-0.75391-8.3125-6.0469-13.602-8.3125-2.2656-0.75391-4.5352-0.75391-6.0469-2.2656-3.0234-1.5117-4.5352-5.2891-7.5586-6.8008-5.2891-3.0234-11.336 0-17.383-1.5117-4.5352-1.5117-8.3125-6.8008-13.602-6.8008-3.0234 0-6.8008 1.5117-9.8242 1.5117-2.2656 0-4.5352-2.2656-6.8008-2.2656s-4.5352 0.75391-6.0469 0l-2.2656-2.2656c-1.5117-2.2656-3.7773-4.5352-5.2891-6.8008-0.75391-0.75391-1.5117-1.5117-2.2656-2.2656-0.75391-0.75391-1.5117-0.75391-3.0234-0.75391-9.0703-3.0234-17.383-8.3125-23.426-15.871-0.75781-0.76562-1.5156-1.5195-2.2695-1.5195-0.75391-0.75391-1.5117-0.75391-2.2656-0.75391-2.2656-0.75391-5.2891-1.5117-7.5586-2.2656 2.2656 0.75391 3.7773-3.0234 6.0469-4.5352 3.0234-2.2656 6.8008-0.75391 10.578-1.5117 3.0234-0.75391 6.0469-3.0234 9.0703-1.5117 1.5117 0.75391 2.2656 2.2656 3.7773 2.2656 2.2656 0 3.7773-1.5117 6.0469-1.5117 0.75391 0 1.5117 0 2.2656 0.75391 7.5586 2.2656 16.625 3.0234 24.184 4.5352-1.5117 1.5117 0 3.7773 0.75391 5.2891 1.5117 2.2656 3.0234 3.7773 5.2891 5.2891 2.2656 1.5117 5.2891 0.75391 7.5586 2.2656 1.5117 0.75391 3.0234 2.2656 4.5352 3.7773 1.5117 0.75391 3.0234 0.75391 3.7773 1.5117 3.7773 2.2656 5.2891 6.8008 9.0703 7.5586 2.2656 0.75391 4.5352 0 6.0469 0 3.7773 0.75391 5.2891 5.2891 8.3125 7.5586 3.7773 3.0234 9.8242 3.0234 12.09 6.8008 0.75391 0.75391 0.75391 1.5117 0.75391 3.0234 1.5117 5.2891 7.5586 8.3125 12.09 10.578-1.5117 1.5117-3.7773 2.2656-6.0469 2.2656 3.0273 0.76172 3.0273 3.0273 3.0273 4.5391z"/>
 <path d="m255.39 499.49c29.473-102.02 104.29-185.91 200.26-228.23 43.832-19.648 92.953-30.23 144.34-30.23 198 0.003906 358.96 160.97 358.96 358.96 0 198-160.96 358.96-358.96 358.96-198 0-358.96-160.96-358.96-358.96 0-34.762 5.2891-68.012 14.359-100.51zm344.61 447.38c108.07 0 204.8-49.879 268.28-127.71 0.75391-4.5352 0.75391-8.3125-1.5117-12.09-4.5352-0.75391-9.0703-0.75391-13.602-1.5117 3.0234-8.3125 3.7773-16.625 3.0234-25.695 0-3.7773-0.75391-8.3125 0.75391-12.09 1.5117-2.2656 3.7773-3.7773 3.7773-6.0469 0-2.2656-1.5117-4.5352-3.7773-6.0469-9.8242-10.578-11.336-27.961-3.7773-40.055 2.2656-4.5352 6.0469-7.5586 9.8242-11.336 7.5586-6.8008 15.113-12.09 24.938-14.359-3.7773-2.2656-2.2656-7.5586 0.75391-10.578 3.0234-3.0234 7.5586-4.5352 9.8242-8.3125 4.5352 0 9.0703-2.2656 12.09-6.0469 0.75391-0.75391 1.5117-2.2656 0.75391-3.0234-0.75391-0.75391-1.5117-0.75391-2.2656-1.5117-3.0234-1.5117-0.75391-6.0469 0.75391-9.8242 2.2656-5.2891 1.5117-12.09 2.2656-18.137 0.75391-8.3125 6.0469-16.625 12.848-21.914 1.5117-0.75391 3.0234-2.2656 4.5352-3.7773 3.0234-4.5352 0-10.578 2.2656-15.113-0.75 0.75391 0.76172-0.75781 0.76172-1.5156 0-1.5117-0.75391-2.2656-1.5117-3.7773-2.2656-4.5352-0.75391-10.578 3.0234-14.359 0.75391 2.2656 4.5352 1.5117 5.2891-0.75391 0.75781-2.2695 0.75781-3.7773 0.75781-6.0469-0.75391-5.2891 0-10.578 1.5117-15.113l2.2656 3.7773c-6.8008-49.879-24.184-95.977-49.121-136.03-2.2656 0.75391-4.5352-1.5117-5.2891-3.0234-0.75391-2.2656-1.5117-4.5352-3.0234-6.0469-0.75391-0.75391-2.2656-1.5117-3.0234-1.5117-3.0234-1.5117-4.5352-5.2891-6.8008-8.3125-3.0234-4.5352-7.5586-7.5586-11.336-10.578-0.75391-0.75391-2.2656-1.5117-3.0234-1.5117-1.5117 0-2.2656 1.5117-1.5117 2.2656-2.2656-0.75391-2.2656-3.7773-3.7773-5.2891-3.0234-6.0469-10.578-7.5586-17.383-7.5586v1.5117c3.0234 0 5.2891 3.7773 5.2891 6.8008-4.5352 0-9.0703-2.2656-11.336-6.0469 2.2656-0.75391 3.0234-3.7773 1.5117-6.0469-1.5117-2.2656-3.0234-3.7773-5.2891-4.5352-1.5117-0.75391-3.0234-2.2656-3.7773-3.7773-0.75391-1.5117-0.75391-3.7773 0.75391-4.5352 3.7773 0.75391 6.8008 2.2656 9.8242 4.5352-3.0234-3.0234-6.8008-6.0469-10.578-7.5586-2.2656-1.5117-5.2891-2.2656-7.5586-0.75391-0.75391 0.75391-1.5117 1.5117-2.2656 3.0234-0.75391 1.5117-2.2656 1.5117-3.0234 0.75391v2.2656c-3.0234-1.5117-6.0469-3.0234-9.8242-3.7773-0.75391 0.75391-0.75391 2.2656 0 3.0234-1.5117 0-4.5352-0.75391-4.5352-2.2656v-2.2656c0-0.75391-1.5117-1.5117-2.2656-1.5117-1.5117-0.75391-3.0234-1.5117-3.7773-3.0234-0.75391-1.5117 0-3.7773 1.5117-4.5352 0.75391-1.5117-3.0234-2.2656-3.7773-3.7773-0.75391-0.75391 0-2.2656 0-3.7773 0-2.2656-3.0234-2.2656-4.5352-3.7773-3.0234-2.2656-3.7773-6.0469-6.0469-8.3125-3.0234-3.0234-7.5586-4.5352-8.3125-8.3125 3.7773 0.75391 6.8008 1.5117 9.8242 3.7773 0.75391-1.5117-1.5117-3.0234-3.0234-3.7773-6.8008-3.7773-12.848-10.578-15.871-18.137 1.5117-0.75391 3.7773 0 5.2891 1.5117 1.5117 1.5117 2.2656 3.0234 3.7773 3.7773 2.2656 1.5117 6.0469 1.5117 8.3125 3.7773 0.75391 0.75391 1.5117 2.2656 2.2656 3.0234 3.7773 3.7773 9.8242 3.0234 13.602 6.8008 0.75391 1.5117 1.5117 3.0234 3.0234 3.7773 1.5117 0.75391 3.0234 1.5117 3.7773 2.2656 3.7773 1.5117 6.8008 3.7773 9.8242 6.8008 0-4.5352-4.5352-6.8008-8.3125-9.8242-1.5117-0.75391-3.0234-2.2656-4.5352-3.7773-0.75391-0.75391-2.2656-1.5117-3.0234-3.0234-57.426-41.562-124.68-63.477-196.48-63.477-34.008 0-66.504 5.2891-97.488 14.359-0.75781 2.2656-3.0234 5.2891-6.0469 7.5547-3.7773 3.0234-8.3125 5.2891-9.8242 9.0703 2.2656 1.5117 5.2891 0.75391 6.8008-1.5117-0.75391 3.7773-3.0234 8.3125-5.2891 11.336 1.5117 0 3.0234 0.75391 4.5352 0.75391 0 1.5117-0.75391 3.0234-1.5117 4.5352 2.2656 0.75391 4.5352 1.5117 7.5586 1.5117 0.75391 2.2656 2.2656 4.5352 3.0234 6.0469 0.75391 2.2656 3.7773 4.5352 5.2891 3.0234-0.75391-1.5117-0.75391-3.0234-1.5117-4.5352 2.2656-1.5117 4.5352-2.2656 7.5586-2.2656-0.75391 2.2656-2.2656 3.7773-3.7773 4.5352 4.5352 1.5117 0 11.336 4.5352 12.848 0.75391 0 1.5117 0 3.0234 0.75391 1.5117 0.75391 1.5117 1.5117 0.75391 2.2656 3.0234-2.2656 6.8008-4.5352 9.8242-6.0469-3.7773-0.75391-7.5586-1.5117-12.09-0.75391-1.5117-2.2656-0.75391-4.5352 1.5117-6.0469s4.5352-2.2656 6.8008-2.2656c6.0469-1.5117 12.848-2.2656 18.895-3.7773 9.0703-1.5117 18.895-3.0234 26.449 1.5117 7.5586 4.5352 11.336 13.602 15.113 21.16 0.75391 1.5117 2.2656 3.7773 3.7773 4.5352 1.5117 0.75391 3.7773 1.5117 6.0469 1.5117 5.2891 0.75391 9.8242 4.5352 11.336 9.0703 2.2656 4.5352 0 10.578-4.5352 12.848-6.0469 3.0234-12.848-2.2656-18.137-6.8008-1.5117 3.7773-3.0234 8.3125-3.7773 12.09-0.75391 3.0234-3.0234 6.8008-6.0469 7.5586-3.0234 0-5.2891-2.2656-6.8008-4.5352-1.5117-2.2656-2.2656-5.2891-3.7773-7.5586 0.75391-1.5117 2.2656-3.7773 3.0234-5.2891-3.0234 0-5.2891-2.2656-6.0469-5.2891 0-3.0234 2.2656-5.2891 4.5352-6.0469 1.5117-2.2656-0.75391-5.2891-2.2656-6.8008-2.2656-1.5117-4.5352-3.0234-5.2891-5.2891-1.5117-2.2656-0.75391-6.0469-3.0234-7.5586-2.2656-1.5117-6.0469 0.75391-6.0469 3.7773 0 3.0234 1.5117 5.2891 4.5352 6.8008 2.2656 0.75391 4.5352 2.2656 4.5352 4.5352 0 2.2656-3.7773 3.0234-5.2891 6.0469-0.75391 1.5117-0.75391 3.0234-1.5117 3.7773-1.5117 2.2656-5.2891 0-7.5586-1.5117-4.5352-3.0234-9.8242-4.5352-15.113-3.7773-2.2656 1.5117-1.5117 6.0469 0.75391 7.5586s5.2891 1.5117 8.3125 1.5117c3.0234 0 6.0469 0 8.3125 1.5117-1.5117 1.5117-4.5352 3.0234-6.8008 2.2656-0.75391 3.0234 0.75391 6.0469 3.7773 6.8008 1.5117-2.2656 3.7773-3.7773 6.0469-3.7773 1.5117 4.5352 1.5117 9.0703 0 13.602 2.2656 0 3.7773 0.75391 5.2891 2.2656 4.5352-2.2656 10.578-1.5117 14.359 2.2656 0.75391 0.75391 2.2656 2.2656 3.7773 2.2656 0.75391 0 1.5117-1.5117 3.0234-1.5117 3.7773-2.2656 9.0703 4.5352 12.09 1.5117 3.7773-2.2656 3.0234-8.3125 0-10.578 2.2656-1.5117 4.5352-3.0234 7.5586-2.2656v12.848c2.2656 3.0234 9.8242-0.75391 11.336 3.7773v3.0234c0.75391 1.5117 2.2656 2.2656 3.7773 2.2656 6.0469 1.5117 10.578 4.5352 15.113 9.0703 4.5352 1.5117 8.3125 3.7773 10.578 7.5586 2.2656-0.75391 3.7773-2.2656 6.0469-1.5117 2.2656 0.75391 3.7773 3.7773 1.5117 5.2891 2.2656-0.75391 4.5352-0.75391 7.5586-0.75391 0 1.5117 0.75391 2.2656 0.75391 3.7773-4.5352 2.2656-8.3125 6.8008-10.578 11.336-0.75391 0.75391-0.75391 2.2656-0.75391 3.0234 0.75391 1.5117 2.2656 2.2656 3.0234 3.7773 0.75391 1.5117-0.75391 4.5352 0.75391 5.2891 0.75391 0.75391 1.5117 0.75391 2.2656 0 10.578-0.75391 21.16-1.5117 31.738-2.2656 0 10.578 3.0234 21.16 9.0703 29.473-1.5117 0.75391-2.2656 0.75391-3.7773 1.5117-0.75391 2.2656 0.75391 5.2891 2.2656 6.8008-3.7773 3.7773-11.336-0.75391-13.602 3.7773-0.75391 1.5117-0.75391 3.0234-2.2656 3.7773-1.5117 0.75391-3.0234-1.5117-4.5352-2.2656-2.2656-1.5117-5.2891 0-8.3125 0-3.7773 0-7.5586-1.5117-11.336-3.7773-0.75391-0.75391-1.5117-0.75391-3.0234-1.5117-3.0234-1.5117-6.8008-4.5352-6.0469-7.5586 1.5117-1.5117 2.2656-2.2656 3.7773-3.7773-6.8008-6.0469-14.359-11.336-21.914-15.871 3.0234-1.5117 1.5117-7.5586-2.2656-7.5586-2.2656 0-4.5352 2.2656-6.8008 3.0234-4.5352 2.2656-10.578-0.75391-12.09-5.2891-4.5352-2.2656-9.0703 2.2656-12.848 6.0469-4.5352 5.2891-10.578 9.8242-16.625 12.848-3.7773 2.2656-7.5586 3.7773-9.8242 6.8008-2.2656 3.0234-2.2656 8.3125 0.75391 10.578 0 1.5117-1.5117 1.5117-2.2656 1.5117-5.2891-1.5117-7.5586-9.8242-3.7773-13.602-1.5117-2.2656-6.0469-1.5117-6.0469 1.5117-1.5117 0.75391-3.0234-0.75391-3.0234-2.2656 8.3125-5.2891 17.383-9.8242 25.695-15.113 0-5.2891 9.0703-9.0703 6.8008-14.359-3.0234-1.5117-6.8008-2.2656-9.8242-0.75391-1.5117 0.75391-2.2656 1.5117-3.0234 3.0234-5.2891 6.0469-11.336 10.578-18.895 13.602 0.75391 0 2.2656-0.75391 3.0234-0.75391-4.5352 1.5117-9.8242 3.7773-10.578 8.3125v3.7773c-0.75391 3.7773-4.5352 6.0469-8.3125 7.5586-5.2891 2.2656-7.5586 10.578-12.848 14.359-2.2656-3.7773-1.5117-8.3125 1.5117-11.336-0.75391-0.75391-1.5117-1.5117-3.0234-2.2656 3.7773-1.5117 6.0469-6.0469 4.5352-9.8242-4.5352-3.0234-10.578-3.7773-15.113-1.5117-0.75391 0-1.5117 0.75391-3.0234 0.75391-1.5117 0-3.0234-2.2656-3.0234-3.7773-1.5117 0-2.2656 0-3.0234-0.75391 2.2656-2.2656 4.5352-4.5352 6.8008-7.5586-4.5352-4.5352-5.2891-12.09-1.5117-17.383-2.2656 1.5117-4.5352-1.5117-5.2891-3.7773-0.75391-2.2656-2.2656-5.2891-4.5352-4.5352-1.5117 0-3.0234 2.2656-4.5352 3.0234-1.5117 0-2.2656 0-3.7773-0.75391-6.8008-3.0234-12.848-6.0469-19.648-9.0703-1.5117 1.5117-0.75391 4.5352 0.75391 6.0469 1.5117 1.5117 3.0234 3.7773 1.5117 6.0469-0.75391 0.75391-0.75391 0.75391-1.5117 0.75391-9.8242 4.5352-18.895 9.0703-28.719 13.602 2.2656 8.3125 12.09 13.602 20.402 10.578 4.5352-1.5117 9.0703-6.0469 13.602-5.2891 6.8008 0.75391 11.336 8.3125 18.137 8.3125h3.7773c1.5117 0.75391 1.5117 1.5117 2.2656 3.0234 2.2656 3.0234 5.2891 5.2891 9.0703 6.0469-3.7773 3.0234-6.8008 6.8008-9.0703 10.578-2.2656 3.0234-3.7773 6.8008-7.5586 8.3125-3.0234 1.5117-9.0703 0-8.3125-3.7773-2.2656-2.2656-6.0469 0-9.0703 1.5117-3.0234 1.5117-7.5586 1.5117-7.5586-1.5117-3.7773 0-7.5586-0.75391-11.336-0.75391v21.914c0 4.5352 0.75391 9.8242 4.5352 12.848 1.5117 0.75391 3.0234 1.5117 4.5352 0.75391 3.0234 0 5.2891-2.2656 8.3125-2.2656 4.5352 0 7.5586 4.5352 11.336 6.0469 6.8008 2.2656 15.871-4.5352 21.16 0 0.75391-1.5117 0.75391-2.2656 2.2656-3.0234 0.75391-0.75391 1.5117-0.75391 2.2656-0.75391 4.5352-1.5117 9.0703-3.7773 13.602-5.2891 4.5352-0.75391 10.578 1.5117 10.578 6.8008 0 1.5117-0.75391 3.7773-0.75391 5.2891 0.75391 4.5352 7.5586 5.2891 11.336 3.0234s9.0703-4.5352 12.848-3.0234c1.5117-2.2656 3.0234-5.2891 2.2656-7.5586 9.8242-0.75391 18.895-3.0234 27.207-7.5586 0.75391-0.75391 2.2656-1.5117 2.2656-2.2656 0.75391-3.0234-4.5352-3.7773-6.0469-6.8008-1.5117-3.7773 4.5352-9.0703 1.5117-11.336 12.09 0 24.184 0.75391 35.52 0.75391 5.2891 0 9.8242 0 15.113 1.5117s9.8242 4.5352 14.359 6.8008 10.578 3.0234 15.113 0c3.7773-2.2656 7.5586-6.0469 10.578-3.0234-1.5117 6.8008 6.0469 11.336 12.09 13.602 6.0469 2.2656 13.602 6.0469 12.848 12.848 0 2.2656-0.75391 3.7773-0.75391 6.0469 0.75391 1.5117 2.2656 3.0234 3.7773 3.7773 0.75391 4.5352 7.5586 6.0469 12.09 7.5586 4.5352 1.5117 8.3125 5.2891 11.336 9.0703 6.0469 7.5586 12.09 15.113 17.383 22.672 2.2656 2.2656 3.7773 5.2891 4.5352 8.3125 0.75391 3.7773-0.75391 8.3125-3.7773 10.578 3.0234 0 3.0234 3.7773 2.2656 6.0469-2.2656 10.578 3.0234 22.672 12.09 28.719-3.0234 0-5.2891 1.5117-6.8008 4.5352-0.75391 3.0234-0.75391 5.2891 0 8.3125 0 1.5117 0.75391 2.2656 0 3.0234-0.75391 0.75391-1.5117 0.75391-2.2656 0.75391-7.5586 2.2656-11.336 11.336-14.359 19.648-1.5117 3.7773-3.0234 7.5586-5.2891 11.336-0.75391 1.5117-1.5117 2.2656-2.2656 3.0234-1.5117 1.5117-3.7773 2.2656-5.2891 3.0234-7.5586 3.7773-10.578 13.602-17.383 18.895-0.75391 0.75391-1.5117 0.75391-2.2656 1.5117-1.5117 0-3.0234-0.75391-3.7773-1.5117-7.5586-4.5352-16.625-6.0469-24.938-3.7773-3.7773 0.75391-6.8008 2.2656-10.578 3.0234-3.7773 0.75391-8.3125 0-10.578-3.0234-1.5117-2.2656-3.0234-5.2891-5.2891-5.2891-1.5117 0-3.0234 0.75391-4.5352 1.5117-3.0234 0.75391-6.0469-0.75391-9.8242-1.5117-9.0703-2.2656-18.895 5.2891-19.648 14.359-5.2891-0.75391-10.578-1.5117-15.113-3.0234h-2.2656c-1.5117 0.75391-2.2656 2.2656-3.7773 3.7773-0.75391 1.5117-3.7773 2.2656-4.5352 0.75391-0.75391 7.5586 0 15.871 3.0234 23.426 0.75391 2.2656 2.2656 5.2891 1.5117 7.5586 0 1.5117-0.75391 2.2656-1.5117 3.0234-6.0469 9.8242-13.602 18.895-21.914 26.449 0 6.0469-1.5117 10.578-3.0234 16.625-0.75391 4.5352-2.2656 8.3125-3.0234 12.848-0.75391 3.0234-1.5117 6.8008 0 9.0703 0.75391 1.5117 2.2656 2.2656 3.0234 3.0234 6.0469 5.2891 9.0703 13.602 8.3125 21.914-0.75391 8.3125-4.5352 15.871-10.578 21.16-1.5117 1.5117-3.7773 3.7773-4.5352 6.0469-1.5117 3.0234-0.75391 6.0469-0.75391 9.0703 0 16.625-20.402 29.473-16.625 45.344-17.383-0.75391-34.762-4.5352-50.633-10.578-15.113-6.0469-29.473-15.871-36.273-30.23-0.75391-2.2656-1.5117-5.2891-3.7773-6.8008-3.0234-2.2656-6.8008-3.0234-9.8242-4.5352-8.3125-3.7773-11.336-15.113-5.2891-21.914-8.3125-6.8008-17.383-14.359-25.695-21.16-3.0234-2.2656-6.0469-5.2891-8.3125-9.0703-5.2891-9.0703-1.5117-21.16-4.5352-30.984 3.7773 0 6.0469-3.7773 6.0469-6.8008 0-3.7773-0.75391-6.8008 0-10.578 0.75391-1.5117 1.5117-3.0234 1.5117-4.5352 0-1.5117 0-3.0234-0.75391-4.5352-3.0234-9.0703-8.3125-16.625-13.602-24.184-1.5117-2.2656-3.0234-3.7773-4.5352-6.0469-9.0703-12.848-18.137-25.695-27.207-38.543-5.2891-6.8008-10.578-14.359-11.336-23.426-0.75391-5.2891 0.75391-10.578-0.75391-15.871-0.75391-3.0234-2.2656-6.0469-2.2656-9.8242s0.75391-7.5586 3.7773-8.3125c8.3125 7.5586 18.137 13.602 28.719 17.383 1.5117 0.75391 3.0234 0.75391 4.5352 0 1.5117-0.75391 1.5117-2.2656 2.2656-4.5352 1.5117-7.5586 7.5586-14.359 15.113-17.383 2.2656-0.75391 5.2891-1.5117 7.5586-3.7773 1.5117-1.5117 1.5117-3.7773 2.2656-5.2891 3.0234-7.5586 8.3125-14.359 15.113-18.895 0.75391 0.75391 1.5117 1.5117 1.5117 3.0234 1.5117-0.75391 0.75391-3.0234 0-4.5352-0.75391-1.5117-1.5117-2.2656-2.2656-3.7773 0-1.5117 0-3.0234 0.75391-4.5352 3.0234-6.0469 11.336-10.578 12.09-17.383 0-1.5117 0-3.0234 0.75391-4.5352 0.75391-3.0234 5.2891-4.5352 6.8008-7.5586 2.2656-2.2656 2.2656-6.0469 4.5352-9.0703 1.5117-2.2656 3.7773-3.7773 6.0469-5.2891 2.2656-1.5117 3.7773-4.5352 2.2656-6.8008-1.5117 3.7773-5.2891 6.0469-9.0703 6.8008-0.75391-2.2656-0.75391-4.5352 0-6.8008-2.2656 5.2891-7.5586 9.0703-11.336 13.602-2.2656 3.0234-3.7773 6.0469-5.2891 9.0703-2.2656 4.5352-5.2891 8.3125-7.5586 12.09-3.0234 3.7773-6.0469 7.5586-9.0703 11.336-5.2891 6.0469-11.336 11.336-18.137 15.871-1.5117 0.75391-2.2656 1.5117-3.0234 3.0234-0.75391 3.0234 3.0234 5.2891 3.0234 8.3125 0 3.7773-6.0469 4.5352-9.0703 8.3125-2.2656 2.2656-1.5117 6.0469-2.2656 9.0703 0 3.0234-1.5117 6.8008-3.7773 7.5586-3.0234 0.75391-5.2891-0.75391-7.5586-3.0234-9.0703-7.5586-18.137-15.871-27.207-24.184-1.5117-1.5117-3.0234-3.0234-3.7773-5.2891-0.75391-1.5117-0.75391-2.2656-1.5117-3.7773-2.2656-4.5352-10.578-5.2891-12.09-10.578-0.75391-1.5117 0-3.7773-0.75391-5.2891-0.75391-2.2656-2.2656-3.7773-3.7773-6.0469-2.2656-3.7773-3.0234-9.0703-3.0234-13.602 0-3.0234 0-5.2891 1.5117-7.5586 1.5117-2.2656 4.5352-3.7773 6.8008-2.2656 10.574-3.793 14.355-6.0625 18.133-6.0625-0.75391-4.5352 0.75391-8.3125 3.7773-12.09 1.5117 7.5586 3.7773 15.871 11.336 18.137 1.5117 0.75391 2.2656 0.75391 3.7773 0 1.5117-0.75391 3.0234-1.5117 3.7773-3.0234 6.8008-8.3125 14.359-15.871 21.16-24.184 0.75391-0.75391 1.5117-1.5117 1.5117-2.2656 0-3.0234-6.0469-3.0234-7.5586-6.0469-3.0234 3.7773-6.8008 7.5586-9.8242 12.09-3.0234 3.0234-6.0469 6.8008-10.578 6.0469-1.5117 0-3.0234-0.75391-4.5352 0-0.75391 0-1.5117 0.75391-2.2656 1.5117-3.0234 0.75391-3.7773-4.5352-6.8008-6.0469-1.5117-0.75391-3.7773 0.75391-5.2891 2.2656s-2.2656 3.7773-3.7773 4.5352c-1.5117 0.75391-3.7773 0.75391-5.2891 0-6.0469-0.75391-11.336-3.0234-16.625-5.2891-1.5117-0.75391-3.0234-1.5117-3.7773-1.5117-5.2891-0.75391-8.3125 5.2891-12.848 7.5586-2.2656 1.5117-5.2891 1.5117-8.3125 0.75391-0.75391 0.75391 0.75391 2.2656 1.5117 3.0234 0.75391 0.75391 2.2656 0.75391 3.0234 1.5117 0.75391 1.5117 0 2.2656-1.5117 3.0234-3.0234 3.0234-7.5586 4.5352-11.336 3.7773v-8.3125c-1.5117 0.75391-1.5117 2.2656-2.2656 3.7773-5.2891 15.871-10.578 30.984-15.871 46.855-1.5117 3.0234-2.2656 6.8008-3.0234 10.578-0.75391 3.0234 0 6.0469-1.5117 8.3125-0.75391 2.2656-3.0234 3.7773-4.5352 5.2891v6.0469c1.5078 190.45 157.18 346.12 348.38 346.12z"/>
</svg>
