<?xml version="1.0" encoding="UTF-8"?>
<svg width="1200pt" height="1200pt" version="1.1" viewBox="0 0 1200 1200" xmlns="http://www.w3.org/2000/svg">
 <path d="m805.78 882.24h146.06c10.078-59.859 27.797-118.17 52.734-173.58l0.046875-0.046875h-0.046875c20.531-45.609 45.797-88.922 75.422-129.19-133.45 52.875-234.79 164.76-274.22 302.81zm-610.36-173.58c24.891 55.406 42.609 113.72 52.734 173.58h146.11-0.046875c-39.422-138.05-140.76-249.94-274.22-302.81 29.625 40.266 54.891 83.578 75.422 129.19zm205.97-47.859c14.766 69.422 21.188 143.29 19.172 221.44h129.71c10.828-26.156 22.688-51.797 35.531-76.875-20.109-38.062-42.609-74.859-67.359-110.06l-0.51562-0.70312-0.046875-0.046875c-46.828-66.469-101.58-127.08-162.98-180.42 20.297 47.25 35.906 96.375 46.5 146.68zm139.6 22.922v0.046875c21.375 30.562 41.062 62.203 59.016 94.875 24.094-43.875 51.375-85.969 81.562-125.95l4.7344-6.2344c-18.422-72.562-46.594-138.37-84.562-197.34v0.046874c-31.5-48.844-69.609-93.047-113.3-131.44 16.125 50.203 27.375 101.25 35.156 148.82 16.781 102.7 17.625 189.71 17.391 217.18zm36.516 198.47h201.94c-2.0156-78.188 4.3594-151.97 19.172-221.39l-0.046875 0.046874c10.641-50.297 26.203-99.469 46.547-146.68-53.062 46.078-101.11 97.594-143.48 153.66-49.969 66.141-91.641 138.14-124.13 214.4"/>
</svg>
