<?xml version="1.0" encoding="UTF-8"?>
<svg width="3600pt" height="3600pt" version="1.1" viewBox="0 0 3600 3600" xmlns="http://www.w3.org/2000/svg">
 <path d="m2509.2 1814.4c0-504-410.4-918-918-918-507.6 0-914.4 410.4-914.4 918 0 504 410.4 918 918 918 507.6 0 914.4-414 914.4-918zm-1278 320.4-54-122.4c-7.1992-14.398-18-21.602-32.398-25.199l-205.2-28.801c-18-3.6016-28.801-25.199-14.398-39.602l36-43.199c10.801-10.801 25.199-18 39.602-14.398l75.602 10.801h25.199l104.4-21.602c3.6016 0 7.1992-3.6016 10.801-3.6016l68.398-32.398c14.398-7.1992 21.602-18 25.199-32.398l28.801-201.6c3.6016-21.602-7.1992-39.602-28.801-46.801l-39.602-21.602c-18-7.1992-28.801-21.602-28.801-39.602 0-25.199 18-43.199 39.602-46.801l50.398-3.6016c25.199-3.6016 43.199-21.602 39.602-46.801l-3.6016-61.195-7.1992-122.4c0-18-10.801-32.398-28.801-39.602l-28.801-10.801c86.398-36 183.6-57.602 288-57.602 54 0 111.6 7.1992 162 18l3.6016 108v3.6016l-14.398 133.2c0 3.6016 0 10.801 3.6016 14.398l14.398 21.602c7.1992 10.801 21.602 10.801 28.801 3.6016l39.602-36c10.801-10.801 28.801-3.6016 32.398 10.801l3.6016 7.1992c3.6016 7.1992 10.801 14.398 18 14.398h46.801 7.1992l39.602-14.398c14.398-7.1992 32.398 7.1992 25.199 25.199l-21.602 68.398c-3.6016 7.1992-10.801 14.398-18 14.398h-54-7.1992l-64.801-18h-14.398l-28.801 14.398c-3.6016 3.6016-10.801 3.6016-14.398 0l-39.602-18c-7.1992-3.6016-10.801-3.6016-18 0l-50.398 36c-3.6016 3.6016-7.1992 10.801-7.1992 14.398l7.1992 61.199c0 7.1992-3.6016 18-10.801 21.602l-39.602 18c-10.801 7.1992-14.398 21.602-3.6016 32.398l25.199 25.199c3.6016 3.6016 10.801 7.1992 18 3.6016l50.398-10.801h10.801l21.602 10.801c7.1992 3.6016 25.199 18 36 28.801 7.1992 7.1992 21.602 7.1992 28.801-3.6016 3.6016-3.6016 7.1992-7.1992 14.398-7.1992l39.602-3.6016c3.6016 0 7.1992-3.6016 10.801-3.6016l3.6016-3.6016c10.801-10.801 25.199-3.6016 32.398 7.1992l21.602 54 3.6016 3.6016 21.602 28.801c7.1992 7.1992 3.6016 18-3.6016 25.199l-50.406 43.211c-7.1992 7.1992-18 7.1992-25.199 0l-50.398-46.801c-3.6016 0-3.6016-3.6016-7.1992-3.6016l-72-32.398h-7.1992l-97.199-10.801h-7.1992l-79.199 21.602c-25.199 7.1992-46.801 25.199-54 50.398l-18 61.199c-7.1992 18-3.6016 39.602 3.6016 57.602l32.398 64.801c10.801 25.199 36 43.199 64.801 46.801l72 7.1992c3.6016 0 7.1992 0 7.1992 3.6016l39.602 25.199c7.1992 3.6016 10.801 7.1992 10.801 14.398l7.1992 72c3.6016 25.199 10.801 50.398 21.602 72l36 64.801c0 3.6016 3.6016 7.1992 7.1992 7.1992l57.602 43.199c10.801 7.1992 25.199 3.6016 32.398-3.6016l18-25.199c0-3.6016 3.6016-7.1992 3.6016-7.1992l43.199-104.4v-7.1992l14.398-154.8c0-3.6016 0-3.6016 3.6016-7.1992l28.801-64.801c3.6016-7.1992 10.801-10.801 21.602-10.801l104.4 14.398c7.1992 0 10.801 0 18-7.1992l21.602-21.602c7.1992-7.1992 7.1992-18 0-25.199l-50.398-64.801c-7.1992-10.801-3.6016-28.801 10.801-32.398l18-3.6016c3.6016 0 32.398-3.6016 43.199-3.6016h3.6016l46.801 7.1992c14.398 3.6016 21.602 10.801 18 21.602l-10.801 133.2v7.1992l36 93.602c-111.6 259.2-370.8 439.2-669.6 439.2-140.4 0-273.6-39.602-385.2-111.6l36-172.8c3.5859-25.191-0.015625-68.395-18.016-107.99z"/>
 <path d="m403.2 1425.6c7.1992 3.6016 18 3.6016 25.199 3.6016 28.801 0 54-18 64.801-43.199 162-417.6 540-702 979.2-745.2v72c0 18 10.801 36 28.801 46.801 7.1992 3.6016 14.398 7.1992 25.199 7.1992 10.801 0 21.602-3.6016 28.801-10.801l212.4-147.6c14.398-10.801 21.602-25.199 21.602-43.199s-7.1992-32.398-21.602-43.199l-212.4-147.6c-14.398-10.801-36-10.801-54-3.6016s-28.801 25.199-28.801 46.801v82.801c-496.8 43.199-925.2 360-1108.8 831.6-10.797 39.598 7.2031 79.195 39.602 93.598z"/>
 <path d="m2782.8 2203.2c-36-14.398-75.602 3.6016-90 39.602-162 417.6-540 702-979.2 745.2v-72c0-18-10.801-36-28.801-46.801-18-7.1992-36-7.1992-54 3.6016l-212.4 147.6c-14.398 10.801-21.602 25.199-21.602 43.199s7.1992 32.398 21.602 43.199l212.4 147.6c7.1992 7.1992 18 10.801 28.801 10.801 7.1992 0 18-3.6016 25.199-7.1992 18-7.1992 28.801-25.199 28.801-46.801v-82.801c496.8-43.199 925.2-360 1108.8-831.6 10.797-39.602-3.6016-79.199-39.602-93.602z"/>
 <path d="m2948.4 644.4c-140.4 0-255.6 115.2-255.6 255.6 0 140.4 115.2 255.6 255.6 255.6 140.4 0 255.6-115.2 255.6-255.6s-111.6-255.6-255.6-255.6z"/>
 <path d="m2948.4 565.2c32.398 0 61.199-28.801 61.199-61.199v-100.8c0-32.398-28.801-61.199-61.199-61.199-32.398 0-61.199 28.801-61.199 61.199v100.8c0 32.398 28.801 61.199 61.199 61.199z"/>
 <path d="m2624.4 662.4c10.801 10.801 28.801 18 43.199 18 14.398 0 32.398-7.1992 43.199-18 25.199-25.199 25.199-61.199 0-86.398l-72-72c-25.199-25.199-64.801-25.199-86.398 0-25.199 25.199-25.199 64.801 0 86.398z"/>
 <path d="m2451.6 961.2h100.8c32.398 0 61.199-28.801 61.199-61.199s-28.801-61.199-61.199-61.199h-100.8c-32.398 0-61.199 28.801-61.199 61.199-0.003906 32.398 25.199 61.199 61.199 61.199z"/>
 <path d="m2552.4 1209.6c-25.199 25.199-25.199 61.199 0 86.398 10.801 10.801 28.801 18 43.199 18 14.398 0 32.398-7.1992 43.199-18l72-72c25.199-25.199 25.199-64.801 0-86.398-25.199-25.199-61.199-25.199-86.398 0z"/>
 <path d="m2948.4 1234.8c-32.398 0-61.199 28.801-61.199 61.199v100.8c0 32.398 28.801 61.199 61.199 61.199 32.398 0 61.199-28.801 61.199-61.199l0.003906-100.8c0-32.398-25.203-61.199-61.203-61.199z"/>
 <path d="m3272.4 1137.6c-25.199-25.199-61.199-25.199-86.398 0-25.199 25.199-25.199 61.199 0 86.398l72 72c10.801 10.801 28.801 18 43.199 18 14.398 0 32.398-7.1992 43.199-18 25.199-25.199 25.199-61.199 0-86.398z"/>
 <path d="m3448.8 838.8h-100.8c-32.398 0-61.199 28.801-61.199 61.199s28.801 61.199 61.199 61.199h100.8c32.398 0 61.199-28.801 61.199-61.199 0-36-28.801-61.199-61.199-61.199z"/>
 <path d="m3229.2 680.4c14.398 0 32.398-7.1992 43.199-18l72-72c25.199-25.199 25.199-61.199 0-86.398-25.199-25.199-64.801-25.199-86.398 0l-72 72c-25.199 25.199-25.199 64.801 0 86.398 14.398 10.801 28.801 18 43.199 18z"/>
 <path d="m637.2 2653.2c-115.2-7.1992-216-86.398-252-194.4-36-111.6-3.6016-230.4 82.801-309.6 7.1992-7.1992 10.801-18 7.1992-28.801-3.6016-10.801-10.801-18-21.602-18-43.199-3.6016-90 3.6016-133.2 18-176.4 61.203-273.6 255.6-212.4 432 28.801 86.398 90 154.8 169.2 194.4 46.801 25.199 97.199 36 151.2 36 36 0 72-7.1992 108-18 43.199-14.398 82.801-36 115.2-68.398 7.1992-7.1992 10.801-18 7.1992-28.801 0.003906-7.1992-10.797-14.398-21.598-14.398z"/>
</svg>
